<?xml version="1.0" standalone="no"?>
<!DOCTYPE svg PUBLIC "-//W3C//DTD SVG 20010904//EN"
 "http://www.w3.org/TR/2001/REC-SVG-20010904/DTD/svg10.dtd">
<svg version="1.0" xmlns="http://www.w3.org/2000/svg"
 width="685.000000pt" height="685.000000pt" viewBox="0 0 685.000000 685.000000"
 preserveAspectRatio="xMidYMid meet">
<metadata>
Created by potrace 1.14, written by Peter Selinger 2001-2017
</metadata>
<g transform="translate(0.000000,685.000000) scale(0.100000,-0.100000)"
fill="#000000" stroke="none">
<path d="M6 6698 c7 -23 32 -111 39 -138 2 -8 26 -96 55 -195 28 -99 53 -187
55 -195 1 -8 24 -88 49 -178 26 -90 66 -234 91 -320 146 -524 186 -666 190
-672 2 -3 6 -19 9 -35 3 -15 14 -57 25 -94 11 -36 47 -165 81 -286 34 -121 68
-242 76 -270 8 -27 46 -162 84 -300 104 -373 111 -398 134 -475 8 -30 41 -145
71 -255 31 -110 72 -256 92 -325 19 -69 36 -129 37 -135 1 -5 10 -35 19 -65 9
-30 23 -80 31 -110 8 -30 33 -120 56 -200 51 -180 71 -252 74 -265 1 -5 5 -16
9 -22 5 -7 7 -13 4 -13 -2 0 22 -88 52 -196 l56 -197 543 1 c299 0 545 2 548
5 3 2 -2 34 -10 70 -8 36 -17 76 -20 88 -4 23 -250 1133 -272 1232 -2 9 -6 27
-9 40 -2 12 -21 94 -40 182 -20 88 -45 203 -56 255 -12 52 -27 122 -35 155 -8
33 -16 69 -18 80 -3 11 -9 40 -15 65 -5 25 -12 56 -15 70 -4 24 -34 160 -41
190 -2 8 -11 49 -20 90 -9 41 -18 82 -20 90 -74 338 -308 1396 -315 1425 -8
31 -106 474 -134 608 -3 12 -11 49 -19 82 -8 33 -22 99 -32 148 l-19 87 -699
0 -698 0 7 -22z"/>
<path d="M2640 6716 c0 -2 -9 -46 -19 -97 -11 -52 -22 -112 -25 -134 -4 -22
-8 -47 -11 -55 -5 -15 -69 -344 -85 -435 -5 -27 -12 -61 -14 -75 -9 -40 -25
-123 -30 -150 -2 -14 -9 -46 -15 -71 -6 -25 -13 -61 -15 -80 -7 -47 -11 -68
-55 -288 -32 -159 -37 -200 -29 -235 5 -22 12 -50 14 -61 2 -11 17 -81 33
-155 16 -74 32 -148 36 -165 3 -16 8 -39 10 -50 3 -11 7 -29 9 -40 24 -112 69
-318 76 -350 6 -22 31 -137 56 -255 25 -118 56 -264 69 -325 13 -60 42 -195
65 -300 75 -348 76 -353 83 -324 4 14 25 113 47 220 22 107 58 275 80 374 22
99 42 191 44 205 3 14 16 77 30 140 14 63 50 232 81 375 30 143 63 289 71 325
9 36 18 74 19 85 3 18 16 81 29 140 13 62 50 234 69 322 11 56 23 101 25 98 4
-3 18 -66 38 -160 2 -11 13 -60 23 -110 49 -223 72 -329 96 -445 15 -69 28
-132 30 -140 2 -8 11 -49 20 -90 9 -41 18 -82 20 -90 2 -8 11 -51 20 -95 9
-44 19 -89 22 -100 2 -11 6 -31 9 -45 3 -14 10 -45 15 -70 6 -25 13 -54 15
-65 5 -28 8 -38 49 -230 21 -93 39 -181 42 -195 2 -14 8 -41 13 -60 5 -19 11
-46 14 -60 2 -14 18 -88 35 -165 16 -77 50 -237 76 -355 25 -118 50 -233 55
-255 9 -36 66 -300 76 -350 6 -32 12 -57 23 -105 5 -25 12 -56 15 -70 23 -115
70 -336 72 -339 4 -5 1334 -4 1338 0 1 2 24 78 50 169 45 155 74 258 245 845
310 1070 384 1326 416 1435 20 69 53 179 72 245 19 66 38 134 43 150 4 17 89
311 190 655 100 344 184 636 186 649 3 14 7 28 10 32 2 4 24 77 48 161 24 84
74 255 110 381 36 125 66 229 66 232 0 3 -303 5 -674 5 -634 0 -675 -1 -680
-17 -7 -24 -64 -289 -71 -332 -3 -19 -8 -37 -10 -41 -2 -4 -7 -22 -10 -41 -3
-19 -15 -76 -26 -128 -23 -107 -21 -95 -49 -221 -11 -52 -29 -135 -40 -185
-10 -49 -40 -184 -65 -300 -25 -115 -55 -253 -66 -305 -11 -52 -22 -102 -24
-110 -3 -12 -118 -546 -130 -600 -1 -8 -21 -98 -43 -200 -23 -102 -43 -196
-46 -210 -4 -24 -53 -251 -81 -375 -7 -33 -23 -104 -35 -159 -12 -54 -24 -108
-26 -120 -3 -11 -7 -32 -10 -46 -24 -115 -35 -164 -38 -168 -3 -2 -9 20 -15
50 -6 29 -13 62 -16 73 -2 11 -22 106 -44 210 -22 105 -45 213 -51 240 -6 28
-13 59 -16 70 -2 11 -8 43 -14 71 -6 28 -13 64 -16 80 -3 16 -9 45 -14 64 -5
19 -18 78 -29 130 -15 77 -83 402 -96 460 -6 26 -86 401 -106 500 -11 52 -52
244 -90 425 -39 182 -75 353 -80 380 -6 28 -12 61 -15 74 -3 12 -12 53 -20 90
-9 36 -24 107 -34 156 -10 50 -36 177 -59 283 -23 106 -41 195 -41 198 0 2
-297 4 -660 4 -363 0 -660 -2 -660 -4z"/>
<path d="M468 1121 c-3 -13 -2 -956 1 -971 1 -3 1312 -5 2914 -5 l2912 0 0
495 0 495 -2912 1 c-2631 0 -2912 -1 -2915 -15z"/>
</g>
</svg>
