<svg width="16" height="14" viewBox="0 0 16 14" fill="none" xmlns="http://www.w3.org/2000/svg">
<g filter="url(#filter0_b_55_284)">
<path d="M3.16748 13.8848C1.63672 13.8848 0.867676 13.1304 0.867676 11.6143V2.67139C0.867676 1.15527 1.63672 0.400879 3.16748 0.400879H13.1724C14.7031 0.400879 15.4648 1.1626 15.4648 2.67139V11.6143C15.4648 13.123 14.7031 13.8848 13.1724 13.8848H3.16748ZM3.05762 12.7056H13.2676C13.9194 12.7056 14.2856 12.3613 14.2856 11.6802V4.77344C14.2856 4.09961 13.9194 3.74805 13.2676 3.74805H3.05762C2.40576 3.74805 2.04688 4.09961 2.04688 4.77344V11.6802C2.04688 12.3613 2.40576 12.7056 3.05762 12.7056ZM6.7417 6.37744C6.48535 6.37744 6.39746 6.3042 6.39746 6.04785V5.61572C6.39746 5.35938 6.48535 5.27881 6.7417 5.27881H7.17383C7.43018 5.27881 7.51074 5.35938 7.51074 5.61572V6.04785C7.51074 6.3042 7.43018 6.37744 7.17383 6.37744H6.7417ZM9.17334 6.37744C8.91699 6.37744 8.8291 6.3042 8.8291 6.04785V5.61572C8.8291 5.35938 8.91699 5.27881 9.17334 5.27881H9.60547C9.86182 5.27881 9.94971 5.35938 9.94971 5.61572V6.04785C9.94971 6.3042 9.86182 6.37744 9.60547 6.37744H9.17334ZM11.605 6.37744C11.3486 6.37744 11.2681 6.3042 11.2681 6.04785V5.61572C11.2681 5.35938 11.3486 5.27881 11.605 5.27881H12.0371C12.2935 5.27881 12.3813 5.35938 12.3813 5.61572V6.04785C12.3813 6.3042 12.2935 6.37744 12.0371 6.37744H11.605ZM4.31006 8.77246C4.04639 8.77246 3.96582 8.69922 3.96582 8.44287V8.01074C3.96582 7.75439 4.04639 7.68115 4.31006 7.68115H4.73486C4.99854 7.68115 5.0791 7.75439 5.0791 8.01074V8.44287C5.0791 8.69922 4.99854 8.77246 4.73486 8.77246H4.31006ZM6.7417 8.77246C6.48535 8.77246 6.39746 8.69922 6.39746 8.44287V8.01074C6.39746 7.75439 6.48535 7.68115 6.7417 7.68115H7.17383C7.43018 7.68115 7.51074 7.75439 7.51074 8.01074V8.44287C7.51074 8.69922 7.43018 8.77246 7.17383 8.77246H6.7417ZM9.17334 8.77246C8.91699 8.77246 8.8291 8.69922 8.8291 8.44287V8.01074C8.8291 7.75439 8.91699 7.68115 9.17334 7.68115H9.60547C9.86182 7.68115 9.94971 7.75439 9.94971 8.01074V8.44287C9.94971 8.69922 9.86182 8.77246 9.60547 8.77246H9.17334ZM11.605 8.77246C11.3486 8.77246 11.2681 8.69922 11.2681 8.44287V8.01074C11.2681 7.75439 11.3486 7.68115 11.605 7.68115H12.0371C12.2935 7.68115 12.3813 7.75439 12.3813 8.01074V8.44287C12.3813 8.69922 12.2935 8.77246 12.0371 8.77246H11.605ZM4.31006 11.1748C4.04639 11.1748 3.96582 11.0942 3.96582 10.8379V10.4058C3.96582 10.1494 4.04639 10.0762 4.31006 10.0762H4.73486C4.99854 10.0762 5.0791 10.1494 5.0791 10.4058V10.8379C5.0791 11.0942 4.99854 11.1748 4.73486 11.1748H4.31006ZM6.7417 11.1748C6.48535 11.1748 6.39746 11.0942 6.39746 10.8379V10.4058C6.39746 10.1494 6.48535 10.0762 6.7417 10.0762H7.17383C7.43018 10.0762 7.51074 10.1494 7.51074 10.4058V10.8379C7.51074 11.0942 7.43018 11.1748 7.17383 11.1748H6.7417ZM9.17334 11.1748C8.91699 11.1748 8.8291 11.0942 8.8291 10.8379V10.4058C8.8291 10.1494 8.91699 10.0762 9.17334 10.0762H9.60547C9.86182 10.0762 9.94971 10.1494 9.94971 10.4058V10.8379C9.94971 11.0942 9.86182 11.1748 9.60547 11.1748H9.17334Z" fill="white"/>
</g>
<defs>
<filter id="filter0_b_55_284" x="-9.53232" y="-9.99912" width="35.3972" height="34.2839" filterUnits="userSpaceOnUse" color-interpolation-filters="sRGB">
<feFlood flood-opacity="0" result="BackgroundImageFix"/>
<feGaussianBlur in="BackgroundImageFix" stdDeviation="5.2"/>
<feComposite in2="SourceAlpha" operator="in" result="effect1_backgroundBlur_55_284"/>
<feBlend mode="normal" in="SourceGraphic" in2="effect1_backgroundBlur_55_284" result="shape"/>
</filter>
</defs>
</svg>
