<svg width="18" height="16" viewBox="0 0 18 16" fill="none" xmlns="http://www.w3.org/2000/svg">
<g filter="url(#filter0_b_55_283)">
<path d="M5.21826 15.2251C4.80078 15.2251 4.56641 14.9248 4.56641 14.4707V12.3394H4.22217C2.03955 12.3394 0.867676 11.1455 0.867676 8.99219V3.38184C0.867676 1.22852 2.03955 0.0273438 4.22217 0.0273438H13.6558C15.8384 0.0273438 17.0103 1.23584 17.0103 3.38184V8.99219C17.0103 11.1382 15.8384 12.3394 13.6558 12.3394H8.70459L6.06055 14.7563C5.71631 15.0786 5.50391 15.2251 5.21826 15.2251ZM5.0498 4.09961H12.7402C12.9819 4.09961 13.1724 3.90918 13.1724 3.66016C13.1724 3.42578 12.9819 3.22803 12.7402 3.22803H5.0498C4.80811 3.22803 4.61035 3.42578 4.61035 3.66016C4.61035 3.90918 4.80811 4.09961 5.0498 4.09961ZM5.0498 6.56055H12.7402C12.9819 6.56055 13.1724 6.36279 13.1724 6.11377C13.1724 5.87939 12.9819 5.68164 12.7402 5.68164H5.0498C4.80811 5.68164 4.61035 5.87939 4.61035 6.11377C4.61035 6.36279 4.80811 6.56055 5.0498 6.56055ZM5.0498 9.01416H10.0522C10.2939 9.01416 10.4844 8.82373 10.4844 8.58203C10.4844 8.33301 10.2939 8.13525 10.0522 8.13525H5.0498C4.80811 8.13525 4.61035 8.33301 4.61035 8.58203C4.61035 8.82373 4.80811 9.01416 5.0498 9.01416Z" fill="white"/>
</g>
<defs>
<filter id="filter0_b_55_283" x="-9.53232" y="-10.3727" width="36.9426" height="35.9978" filterUnits="userSpaceOnUse" color-interpolation-filters="sRGB">
<feFlood flood-opacity="0" result="BackgroundImageFix"/>
<feGaussianBlur in="BackgroundImageFix" stdDeviation="5.2"/>
<feComposite in2="SourceAlpha" operator="in" result="effect1_backgroundBlur_55_283"/>
<feBlend mode="normal" in="SourceGraphic" in2="effect1_backgroundBlur_55_283" result="shape"/>
</filter>
</defs>
</svg>
