<svg width="49" height="32" viewBox="0 0 49 32" fill="none" xmlns="http://www.w3.org/2000/svg">
<path fill-rule="evenodd" clip-rule="evenodd" d="M24.1303 0C37.2504 0 47.5231 14.1456 47.9543 14.7479C48.3631 15.3186 48.3631 16.0942 47.9543 16.6655C47.5231 17.2672 37.2504 31.4129 24.1303 31.4129C11.0102 31.4129 0.737034 17.2674 0.306306 16.6651C-0.102102 16.0936 -0.102102 15.3186 0.306306 14.7473C0.737034 14.1456 11.0102 0 24.1303 0ZM3.61781 15.7053C6.0956 18.7746 14.4658 28.1633 24.1303 28.1633C33.8154 28.1633 42.1682 18.7795 44.6428 15.7076C42.164 12.6366 33.7941 3.24957 24.1303 3.24957C14.4451 3.24957 6.09238 12.6334 3.61781 15.7053Z" fill="white"/>
<path fill-rule="evenodd" clip-rule="evenodd" d="M16.1748 15.2099C16.1748 10.7304 19.7435 7.08594 24.13 7.08594C28.5163 7.08594 32.085 10.7304 32.085 15.2099C32.085 19.6895 28.5163 23.334 24.13 23.334C19.7435 23.334 16.1748 19.6895 16.1748 15.2099ZM18.8265 15.2099C18.8265 18.1964 21.2056 20.6259 24.13 20.6259C27.0544 20.6259 29.4333 18.1964 29.4333 15.2099C29.4333 12.2236 27.0542 9.79398 24.13 9.79398C21.2056 9.79398 18.8265 12.2236 18.8265 15.2099Z" fill="white"/>
<path d="M24.1298 6.57178C19.4658 6.57178 15.6719 10.4463 15.6719 15.2091H16.6773C16.6773 11.0132 20.021 7.59856 24.1298 7.59856V6.57178ZM32.5875 15.2091C32.5875 10.4463 28.7938 6.57178 24.1298 6.57178V7.59856C28.2384 7.59856 31.5821 11.0132 31.5821 15.2091H32.5875ZM24.1298 23.8466C28.7938 23.8466 32.5875 19.9721 32.5875 15.2091H31.5821C31.5821 19.4052 28.2384 22.8198 24.1298 22.8198V23.8466ZM15.6719 15.2091C15.6719 19.9721 19.4658 23.8466 24.1298 23.8466V22.8198C20.021 22.8198 16.6773 19.4052 16.6773 15.2091H15.6719ZM24.1298 20.1118C21.4831 20.1118 19.329 17.912 19.329 15.2091H18.3236C18.3236 18.4792 20.9277 21.1386 24.1298 21.1386V20.1118ZM28.9303 15.2091C28.9303 17.912 26.7765 20.1118 24.1298 20.1118V21.1386C27.3317 21.1386 29.9358 18.4792 29.9358 15.2091H28.9303ZM24.1298 10.3066C26.7765 10.3066 28.9303 12.5064 28.9303 15.2091H29.9358C29.9358 11.9392 27.3317 9.27982 24.1298 9.27982V10.3066ZM19.329 15.2091C19.329 12.5064 21.4831 10.3066 24.1298 10.3066V9.27982C20.9277 9.27982 18.3236 11.9392 18.3236 15.2091H19.329Z" fill="white"/>
</svg>
